<?xml version="1.0" encoding="iso-8859-1"?>
<svg xmlns="http://www.w3.org/2000/svg" xmlns:xlink="http://www.w3.org/1999/xlink" version="1.1" viewBox="0 0 463.002 463.002" enable-background="new 0 0 463.002 463.002" width="512px" height="512px">
  <g>
    <path d="m445.555,275.073c-1.412-1.932-3.661-3.073-6.054-3.073h-9.241c0.053-0.897 0.111-1.811 0.169-2.737 0.804-12.812 1.803-28.757-5.051-43.62-7.195-15.603-21.293-26.561-42.928-33.364 11.961-33.758 0.012-64.021-12.775-84.054-20.275-31.767-53.505-54.899-75.091-59.408-3.313-27.461-26.744-48.817-55.083-48.817-30.603,0-55.5,24.897-55.5,55.5 0,11.76 3.808,23.136 10.567,32.507-9.87,0.687-19.77,1.133-29.211,1.558-18.804,0.845-36.564,1.643-49.67,4.16-3.616,0.694-11.299,2.176-17.473,6.059-0.369,0.133-0.734,0.288-1.088,0.483-14.93,8.241-28.546,32.381-33.113,58.703-3.296,18.992-1.196,35.455 5.857,47.33-10.113,8.409-28.602,25.112-30.652,65.7h-15.717c-2.393,0-4.642,1.142-6.054,3.073-1.413,1.932-1.818,4.421-1.093,6.701l50.679,159.277c4.177,13.129 16.24,21.949 30.017,21.949h14.422c0.008,0 0.015,0.002 0.023,0.002 0.011,0 0.023-0.002 0.035-0.002h31.941c0.007,0 0.014,0.001 0.021,0.001 0.005,0 0.01-0.001 0.014-0.001h175.991c0.005,0 0.01,0.001 0.014,0.001 0.007,0 0.014-0.001 0.021-0.001h31.941c0.012,0 0.023,0.002 0.035,0.002 0.008,0 0.015-0.002 0.023-0.002h14.422c13.776,0 25.84-8.82 30.017-21.948l50.679-159.277c0.724-2.281 0.319-4.77-1.094-6.702zm-246.554-219.573c0-22.332 18.168-40.5 40.5-40.5 21.993,0 39.935,17.624 40.474,39.489-6.338,20.348-34.62,28.232-66.717,31.852-9.091-7.714-14.257-18.801-14.257-30.841zm-80.484,52.955c12.037-2.312 29.27-3.086 47.515-3.906 49.541-2.227 110.554-4.975 126.484-40.845 6.33,1.514 15.837,5.632 27.216,13.723 14.749,10.486 27.996,24.29 37.301,38.868 11.07,17.344 21.483,43.528 10.84,72.195-15.695-3.45-37.777-7.092-62.857-11.228-42.152-6.95-94.614-15.601-135.224-26.7-19.736-5.395-65.643-19.663-65.643-35.608 2.84217e-14-1.725 3.763-4.463 14.368-6.499zm-39.724,53.079c2.229-12.848 7.271-25.707 13.286-35.135 16.582,31.205 102.115,47.794 210.498,65.665 28.318,4.669 52.774,8.702 67.981,12.445 48.158,11.857 46.428,39.461 44.9,63.815-0.078,1.25-0.152,2.47-0.221,3.676h-200.192c-5.702-2.272-29.313-11.805-55.14-24.025-38.485-18.21-64.191-33.918-74.341-45.425-7.376-8.362-9.843-23.312-6.771-41.016zm71.255,286.466l-21.955-161h40.241l7.318,161h-25.604zm-32.56,0l-36.591-161h32.057l21.955,161h-17.421zm65.862-161h30.219c0.014,0 0.028,0.002 0.042,0.002 0.009,0 0.017-0.002 0.026-0.002h10.364v161h-33.333l-7.318-161zm-103.771-69.265c20.914,18.895 65.374,40.4 96.785,54.265h-122.141c1.841-33.718 16.034-46.525 25.356-54.265zm1.747,218.768l-47.568-149.503h31.756l36.591,161h-5.055c-7.217,0-13.535-4.62-15.724-11.497zm300.35,0c-2.189,6.877-8.507,11.497-15.724,11.497h-5.055l25.191-110.841c0.918-4.039-1.612-8.058-5.651-8.976-4.035-0.913-8.058,1.613-8.976,5.651l-25.947,114.166h-17.421l10.839-79.488c0.56-4.104-2.314-7.886-6.418-8.445-4.11-0.562-7.886,2.314-8.445,6.418l-11.115,81.515h-25.604l2.189-48.163c0.188-4.138-3.014-7.645-7.151-7.833-4.142-0.15-7.646,3.014-7.833,7.151l-2.221,48.845h-33.333v-161h40.651l-3.644,80.159c-0.188,4.138 3.014,7.645 7.151,7.833 0.116,0.005 0.231,0.008 0.347,0.008 3.985,0 7.304-3.138 7.486-7.159l3.676-80.841h40.241l-6.475,47.483c-0.56,4.104 2.314,7.885 6.418,8.445 0.345,0.047 0.686,0.069 1.023,0.069 3.691,0 6.909-2.728 7.422-6.487l6.751-49.51h32.057l-3.372,14.838c-0.918,4.039 1.612,8.058 5.651,8.976 0.56,0.127 1.118,0.188 1.669,0.188 3.424,0 6.516-2.36 7.307-5.84l4.128-18.162h31.756l-47.568,149.503z" fill="#D80027"/>
    <path d="m239.501,32c-4.143,0-7.5,3.357-7.5,7.5s3.357,7.5 7.5,7.5c4.687,0 8.5,3.813 8.5,8.5 0,4.143 3.357,7.5 7.5,7.5s7.5-3.357 7.5-7.5c0-12.958-10.542-23.5-23.5-23.5z" fill="#D80027"/>
    <path d="m254.373,214.915c5.553,0.844 10.875,1.662 15.977,2.457 0.392,0.061 0.779,0.09 1.163,0.09 3.633,0 6.825-2.646 7.402-6.347 0.637-4.093-2.164-7.928-6.257-8.565-5.119-0.797-10.459-1.617-16.029-2.465-4.091-0.614-7.92,2.191-8.543,6.287-0.622,4.096 2.192,7.92 6.287,8.543z" fill="#D80027"/>
    <path d="m302.261,222.516c79.706,13.399 80.696,19.34 81.842,26.218 0.612,3.668 3.789,6.268 7.39,6.268 0.409,0 0.824-0.033 1.242-0.103 4.085-0.682 6.846-4.546 6.165-8.632-1.512-9.064-5.316-15.855-19.595-21.692-12.572-5.14-34.87-10.179-74.558-16.852-4.087-0.685-7.953,2.067-8.64,6.153-0.686,4.085 2.069,7.952 6.154,8.64z" fill="#D80027"/>
    <path d="m299.205,101.648c3.395,2.371 6.614,4.888 9.571,7.479 1.424,1.247 3.186,1.859 4.94,1.859 2.086,0 4.161-0.865 5.644-2.557 2.729-3.115 2.418-7.854-0.697-10.584-3.368-2.951-7.024-5.81-10.866-8.494-3.396-2.372-8.07-1.542-10.444,1.853-2.373,3.396-1.543,8.071 1.852,10.444z" fill="#D80027"/>
    <path d="m336.001,159.5c0,4.143 3.357,7.5 7.5,7.5s7.5-3.357 7.5-7.5c0-3.986-0.779-18.345-10.802-35.755-2.066-3.589-6.651-4.824-10.242-2.758-3.59,2.066-4.824,6.652-2.758,10.242 8.555,14.86 8.802,26.942 8.802,28.271z" fill="#D80027"/>
  </g>
</svg>
